<!-- Nitro Logo: https://nitro.unjs.io -->
<!-- https://maketintsandshades.com/#f0da51 -->
<!-- License: MIT. Made by Twitter: https://github.com/twitter/twemoji -->
<svg width="800" height="800" viewBox="0 0 36 36" xmlns="http://www.w3.org/2000/svg" aria-hidden="true" class="iconify iconify--twemoji"><path fill="#67757F" d="M16 34.375a1 1 0 1 1-2 0V26a1 1 0 1 1 2 0v8.375z"/><circle fill="#E1E8ED" cx="15.41" cy="15.625" r="13.873"/><path fill="#f0da51" d="M3.592 16.139c.232 6.334 5.427 11.402 11.818 11.402s11.586-5.068 11.818-11.402H3.592z"/><path fill="#67757F" d="M30 24a2 2 0 0 1-2 2H3a2 2 0 0 1 0-4h25a2 2 0 0 1 2 2z"/><path fill="#67757F" d="M2.622 35.207a.999.999 0 1 1-1.883-.673l3.317-9.262a1 1 0 1 1 1.883.673l-3.317 9.262zm25.757 0a1 1 0 0 0 1.882-.673l-3.359-9.345a1 1 0 1 0-1.882.672l3.359 9.346z"/><path fill="#E1E8ED" d="M19.006 2.266S32.36 6.948 33.778 7.404c3.725 1.199 2.184 5.224-.385 4.582-5.083-1.271-14.387-4.068-15.415-4.068s1.028-5.652 1.028-5.652z"/><path fill="#9AAAB4" d="M29 23a1 1 0 0 1-1 1H3a1 1 0 1 1 0-2h25a1 1 0 0 1 1 1z"/><ellipse fill="#c0ae41" cx="15.41" cy="16.139" rx="11.818" ry="1.629"/><ellipse transform="rotate(-74.365 34.047 9.981)" fill="#AAB8C2" cx="34.047" cy="9.982" rx="1.341" ry=".974"/>
</svg>
